# xmcd
#
# Track frame offsets: 
#        150
#        16510
#        33285
#        51070
#        64680
#        84429
#        98622
#        115779
#        132550
#        154132
#        167165
#
# Disc length: 2471 seconds
#
# Revision: 0
# Processed by: cddbd v1.5.2PL0 Copyright (c) Steve Scherf et al.
# Submitted via: ExactAudioCopyFreeDBPlugin 1.0
#
DISCID=7d09a50b
DTITLE=J.C. Jones - One Night
DYEAR=1998
DGENRE=Country
TTITLE0=Something I Want
TTITLE1=The Best I Can Do
TTITLE2=A Little Bit Of Tenderness
TTITLE3=Angels With One Wing
TTITLE4=Forever's A Moment In Your Eyes
TTITLE5=How Do You Do What You Do So Well
TTITLE6=One Night
TTITLE7=Rain On A Tin Roof
TTITLE8=The Power Of Love
TTITLE9=Master Of The Game
TTITLE10=What Color Am I
EXTD=
EXTT0=
EXTT1=
EXTT2=
EXTT3=
EXTT4=
EXTT5=
EXTT6=
EXTT7=
EXTT8=
EXTT9=
EXTT10=
PLAYORDER=
